<svg xmlns="http://www.w3.org/2000/svg" viewBox="0 0 26 26">
  <g fill="none" stroke="#000000" stroke-width="1.6" stroke-linecap="round" stroke-linejoin="round">
    <path d="m2.681 14.82 3.363 3.07"></path>
    <path d="m1 16.201 9.325 8.599c.255.204.917.43 1.529-.307l4.127-4.453"></path>
    <path d="M25 10.98 14.605 1.2c-.255-.204-.917-.43-1.529.307L10.983 3.61"></path>
    <path d="m5.546 8.335-.658-.728c-.344-.594-.058-.92.371-1.408l2.012-2.127c.19-.217.7-.567 1.21-.23l.974.862"></path>
    <path d="M12.923 7.642c2.93 0 5.31 2.386 5.31 5.335s-2.38 5.335-5.31 5.335-5.308-2.387-5.308-5.335 2.379-5.335 5.308-5.335Z"></path>
  </g>
  <path fill="#000000" d="M13 9a4 4 0 1 1 0 8 4 4 0 0 1 0-8m-2.332 3.307 3.201 2.991.978-4.28z"></path>
</svg>